<mxfile host="65bd71144e">
    <diagram id="c7GNOODels3H1KpkA6qX" name="Page-1">
        <mxGraphModel dx="1923" dy="1491" grid="1" gridSize="10" guides="1" tooltips="1" connect="1" arrows="1" fold="1" page="1" pageScale="1" pageWidth="1169" pageHeight="1654" math="0" shadow="0">
            <root>
                <mxCell id="0"/>
                <mxCell id="1" parent="0"/>
                <mxCell id="2" value="" style="rounded=1;whiteSpace=wrap;html=1;arcSize=50;absoluteArcSize=1;" vertex="1" parent="1">
                    <mxGeometry x="305" y="340" width="850" height="910" as="geometry"/>
                </mxCell>
                <mxCell id="3" value="&lt;b style=&quot;font-size: 19px;&quot;&gt;&lt;font style=&quot;font-size: 19px;&quot;&gt;PurePyHome Core&lt;/font&gt;&lt;/b&gt;" style="text;html=1;strokeColor=none;fillColor=none;align=center;verticalAlign=middle;whiteSpace=wrap;rounded=1;fontSize=19;" vertex="1" parent="1">
                    <mxGeometry x="325" y="340" width="810" height="30" as="geometry"/>
                </mxCell>
                <mxCell id="4" value="" style="endArrow=none;html=1;entryX=0;entryY=1;entryDx=0;entryDy=0;exitX=1;exitY=1;exitDx=0;exitDy=0;" edge="1" parent="1" source="3" target="3">
                    <mxGeometry width="50" height="50" relative="1" as="geometry">
                        <mxPoint x="634.9999999999998" y="370" as="sourcePoint"/>
                        <mxPoint x="314.9999999999998" y="370" as="targetPoint"/>
                    </mxGeometry>
                </mxCell>
                <mxCell id="9" value="&lt;div style=&quot;background-color: rgb(255, 255, 255); font-family: Consolas, &amp;quot;Courier New&amp;quot;, monospace; line-height: 19px; font-size: 15px;&quot;&gt;&lt;span style=&quot;color: rgb(116, 83, 31); font-size: 15px;&quot;&gt;create_entity&lt;/span&gt;(&lt;span style=&quot;color: rgb(43, 145, 175); font-size: 15px;&quot;&gt;EntityCreationInfo&lt;/span&gt;):&lt;/div&gt;" style="text;html=1;strokeColor=none;fillColor=none;align=left;verticalAlign=middle;whiteSpace=wrap;rounded=0;fontSize=15;" vertex="1" parent="1">
                    <mxGeometry x="355" y="420" width="360" height="30" as="geometry"/>
                </mxCell>
                <mxCell id="10" value="&lt;div style=&quot;color: rgb(0, 0, 0); background-color: rgb(255, 255, 255); font-family: Consolas, &amp;quot;Courier New&amp;quot;, monospace; font-weight: normal; font-size: 15px; line-height: 19px;&quot;&gt;&lt;div style=&quot;font-size: 15px;&quot;&gt;&lt;span style=&quot;color: rgb(116, 83, 31); font-size: 15px;&quot;&gt;update_entity&lt;/span&gt;&lt;span style=&quot;color: rgb(0, 0, 0); font-size: 15px;&quot;&gt;(&lt;/span&gt;&lt;span style=&quot;color: rgb(43, 145, 175); font-size: 15px;&quot;&gt;EntityUpdateInfo&lt;/span&gt;):&lt;/div&gt;&lt;/div&gt;" style="text;whiteSpace=wrap;html=1;fontSize=15;align=left;verticalAlign=middle;" vertex="1" parent="1">
                    <mxGeometry x="355" y="450" width="360" height="30" as="geometry"/>
                </mxCell>
                <mxCell id="12" value="&lt;div style=&quot;color: rgb(0, 0, 0); background-color: rgb(255, 255, 255); font-family: Consolas, &amp;quot;Courier New&amp;quot;, monospace; font-weight: normal; font-size: 15px; line-height: 19px;&quot;&gt;&lt;div style=&quot;font-size: 15px;&quot;&gt;&lt;span style=&quot;color: rgb(116, 83, 31); font-size: 15px;&quot;&gt;remove_entity&lt;/span&gt;&lt;span style=&quot;color: rgb(0, 0, 0); font-size: 15px;&quot;&gt;(&lt;/span&gt;&lt;span style=&quot;color: rgb(128, 128, 128); font-size: 15px;&quot;&gt;entity_id&lt;/span&gt;&lt;span style=&quot;color: rgb(0, 0, 0); font-size: 15px;&quot;&gt;: &lt;/span&gt;&lt;span style=&quot;color: rgb(43, 145, 175); font-size: 15px;&quot;&gt;str&lt;/span&gt;&lt;span style=&quot;color: rgb(0, 0, 0); font-size: 15px;&quot;&gt;):&lt;/span&gt;&lt;/div&gt;&lt;/div&gt;" style="text;whiteSpace=wrap;html=1;fontSize=15;verticalAlign=middle;" vertex="1" parent="1">
                    <mxGeometry x="355" y="480" width="360" height="30" as="geometry"/>
                </mxCell>
                <mxCell id="13" value="&lt;div style=&quot;color: rgb(0, 0, 0); background-color: rgb(255, 255, 255); font-family: Consolas, &amp;quot;Courier New&amp;quot;, monospace; font-weight: normal; font-size: 15px; line-height: 19px;&quot;&gt;&lt;div style=&quot;font-size: 15px;&quot;&gt;&lt;span style=&quot;color: rgb(116, 83, 31); font-size: 15px;&quot;&gt;get_entity&lt;/span&gt;&lt;span style=&quot;color: rgb(0, 0, 0); font-size: 15px;&quot;&gt;(&lt;/span&gt;&lt;span style=&quot;color: rgb(128, 128, 128); font-size: 15px;&quot;&gt;entity_id&lt;/span&gt;&lt;span style=&quot;color: rgb(0, 0, 0); font-size: 15px;&quot;&gt;: &lt;/span&gt;&lt;span style=&quot;color: rgb(43, 145, 175); font-size: 15px;&quot;&gt;str&lt;/span&gt;&lt;span style=&quot;color: rgb(0, 0, 0); font-size: 15px;&quot;&gt;): -&amp;gt;&amp;nbsp;&lt;/span&gt;&lt;span style=&quot;color: rgb(43, 145, 175); font-size: 15px;&quot;&gt;EntityStateInfo&lt;/span&gt;&lt;/div&gt;&lt;/div&gt;" style="text;whiteSpace=wrap;html=1;fontSize=15;verticalAlign=middle;" vertex="1" parent="1">
                    <mxGeometry x="355" y="510" width="440" height="30" as="geometry"/>
                </mxCell>
                <mxCell id="14" value="&lt;div style=&quot;color: rgb(0, 0, 0); background-color: rgb(255, 255, 255); font-family: Consolas, &amp;quot;Courier New&amp;quot;, monospace; font-weight: normal; font-size: 15px; line-height: 19px;&quot;&gt;&lt;div style=&quot;font-size: 15px;&quot;&gt;&lt;span style=&quot;color: rgb(116, 83, 31); font-size: 15px;&quot;&gt;get_entity_history&lt;/span&gt;&lt;span style=&quot;color: rgb(0, 0, 0); font-size: 15px;&quot;&gt;(&lt;/span&gt;&lt;span style=&quot;color: rgb(128, 128, 128); font-size: 15px;&quot;&gt;entity_id&lt;/span&gt;&lt;span style=&quot;color: rgb(0, 0, 0); font-size: 15px;&quot;&gt;: &lt;/span&gt;&lt;span style=&quot;color: rgb(43, 145, 175); font-size: 15px;&quot;&gt;str&lt;/span&gt;&lt;span style=&quot;color: rgb(0, 0, 0); font-size: 15px;&quot;&gt;): -&amp;gt;&amp;nbsp;&lt;/span&gt;&lt;span style=&quot;color: rgb(43, 145, 175); font-size: 15px;&quot;&gt;EntityHistoryInfo&lt;/span&gt;&lt;/div&gt;&lt;/div&gt;" style="text;whiteSpace=wrap;html=1;fontSize=15;verticalAlign=middle;" vertex="1" parent="1">
                    <mxGeometry x="355" y="540" width="490" height="30" as="geometry"/>
                </mxCell>
                <mxCell id="16" value="" style="shape=flexArrow;endArrow=classic;html=1;fontSize=15;width=9.841269841269842;endSize=6.193650793650795;endWidth=10.874424720578567;" edge="1" parent="1">
                    <mxGeometry width="50" height="50" relative="1" as="geometry">
                        <mxPoint x="345" y="630" as="sourcePoint"/>
                        <mxPoint x="305" y="630" as="targetPoint"/>
                    </mxGeometry>
                </mxCell>
                <mxCell id="20" value="Function Calls:" style="text;html=1;strokeColor=none;fillColor=none;align=left;verticalAlign=middle;whiteSpace=wrap;rounded=0;fontSize=15;fontStyle=1" vertex="1" parent="1">
                    <mxGeometry x="315" y="390" width="140" height="30" as="geometry"/>
                </mxCell>
                <mxCell id="21" value="Event Signals:" style="text;html=1;strokeColor=none;fillColor=none;align=left;verticalAlign=middle;whiteSpace=wrap;rounded=0;fontSize=15;fontStyle=1" vertex="1" parent="1">
                    <mxGeometry x="315" y="580" width="140" height="30" as="geometry"/>
                </mxCell>
                <mxCell id="22" value="" style="shape=flexArrow;endArrow=classic;html=1;fontSize=15;width=9.841269841269842;endSize=6.193650793650795;endWidth=10.874424720578567;" edge="1" parent="1">
                    <mxGeometry width="50" height="50" relative="1" as="geometry">
                        <mxPoint x="305" y="464.99999999999994" as="sourcePoint"/>
                        <mxPoint x="345" y="464.84" as="targetPoint"/>
                    </mxGeometry>
                </mxCell>
                <mxCell id="23" value="" style="shape=flexArrow;endArrow=classic;html=1;fontSize=15;width=9.841269841269842;endSize=6.193650793650795;endWidth=10.874424720578567;" edge="1" parent="1">
                    <mxGeometry width="50" height="50" relative="1" as="geometry">
                        <mxPoint x="305" y="494.99999999999994" as="sourcePoint"/>
                        <mxPoint x="345" y="494.84" as="targetPoint"/>
                    </mxGeometry>
                </mxCell>
                <mxCell id="24" value="" style="shape=flexArrow;endArrow=classic;html=1;fontSize=15;width=9.841269841269842;endSize=6.193650793650795;endWidth=10.874424720578567;" edge="1" parent="1">
                    <mxGeometry width="50" height="50" relative="1" as="geometry">
                        <mxPoint x="305" y="525" as="sourcePoint"/>
                        <mxPoint x="345" y="524.8399999999999" as="targetPoint"/>
                    </mxGeometry>
                </mxCell>
                <mxCell id="25" value="" style="shape=flexArrow;endArrow=classic;html=1;fontSize=15;width=9.841269841269842;endSize=6.193650793650795;endWidth=10.874424720578567;" edge="1" parent="1">
                    <mxGeometry width="50" height="50" relative="1" as="geometry">
                        <mxPoint x="305" y="555" as="sourcePoint"/>
                        <mxPoint x="345" y="554.8399999999999" as="targetPoint"/>
                    </mxGeometry>
                </mxCell>
                <mxCell id="26" value="&lt;div style=&quot;color: rgb(0, 0, 0); background-color: rgb(255, 255, 255); font-family: Consolas, &amp;quot;Courier New&amp;quot;, monospace; font-weight: normal; font-size: 15px; line-height: 19px;&quot;&gt;&lt;div style=&quot;font-size: 15px;&quot;&gt;&lt;span style=&quot;color: rgb(116, 83, 31); font-size: 15px;&quot;&gt;register_entity&amp;nbsp; provides:&amp;nbsp;&lt;/span&gt;&lt;span style=&quot;color: rgb(43, 145, 175); font-size: 15px;&quot;&gt;EntityCreationInfo&lt;/span&gt;&lt;/div&gt;&lt;/div&gt;" style="text;whiteSpace=wrap;html=1;fontSize=15;verticalAlign=middle;" vertex="1" parent="1">
                    <mxGeometry x="355" y="615" width="430" height="35" as="geometry"/>
                </mxCell>
                <mxCell id="27" value="&lt;div style=&quot;color: rgb(0, 0, 0); background-color: rgb(255, 255, 255); font-family: Consolas, &amp;quot;Courier New&amp;quot;, monospace; font-weight: normal; font-size: 15px; line-height: 19px;&quot;&gt;&lt;div style=&quot;font-size: 15px;&quot;&gt;&lt;span style=&quot;color: rgb(116, 83, 31); font-size: 15px;&quot;&gt;remove_entity&amp;nbsp; provides:&amp;nbsp;&lt;/span&gt;&lt;span style=&quot;color: rgb(128, 128, 128); font-size: 15px;&quot;&gt;entity_id&lt;/span&gt;&lt;span style=&quot;border-color: var(--border-color); font-size: 15px;&quot;&gt;:&amp;nbsp;&lt;/span&gt;&lt;span style=&quot;border-color: var(--border-color); color: rgb(43, 145, 175); font-size: 15px;&quot;&gt;str&lt;/span&gt;&lt;/div&gt;&lt;/div&gt;" style="text;whiteSpace=wrap;html=1;fontSize=15;verticalAlign=middle;" vertex="1" parent="1">
                    <mxGeometry x="355" y="650" width="410" height="30" as="geometry"/>
                </mxCell>
                <mxCell id="28" value="&lt;div style=&quot;color: rgb(0, 0, 0); background-color: rgb(255, 255, 255); font-family: Consolas, &amp;quot;Courier New&amp;quot;, monospace; font-weight: normal; font-size: 15px; line-height: 19px;&quot;&gt;&lt;div style=&quot;font-size: 15px;&quot;&gt;&lt;span style=&quot;color: rgb(116, 83, 31); font-size: 15px;&quot;&gt;update_entity&amp;nbsp; provides:&amp;nbsp;&lt;/span&gt;&lt;span style=&quot;color: rgb(43, 145, 175); font-size: 15px;&quot;&gt;EntityUpdateInfo&lt;/span&gt;&lt;/div&gt;&lt;/div&gt;" style="text;whiteSpace=wrap;html=1;fontSize=15;verticalAlign=middle;" vertex="1" parent="1">
                    <mxGeometry x="355" y="680" width="420" height="30" as="geometry"/>
                </mxCell>
                <mxCell id="29" value="" style="shape=flexArrow;endArrow=classic;html=1;fontSize=15;width=9.841269841269842;endSize=6.193650793650795;endWidth=10.874424720578567;" edge="1" parent="1">
                    <mxGeometry width="50" height="50" relative="1" as="geometry">
                        <mxPoint x="345" y="664.7099999999998" as="sourcePoint"/>
                        <mxPoint x="305" y="664.7099999999998" as="targetPoint"/>
                    </mxGeometry>
                </mxCell>
                <mxCell id="30" value="" style="shape=flexArrow;endArrow=classic;html=1;fontSize=15;width=9.841269841269842;endSize=6.193650793650795;endWidth=10.874424720578567;" edge="1" parent="1">
                    <mxGeometry width="50" height="50" relative="1" as="geometry">
                        <mxPoint x="345" y="694.7099999999998" as="sourcePoint"/>
                        <mxPoint x="305" y="694.7099999999998" as="targetPoint"/>
                    </mxGeometry>
                </mxCell>
                <mxCell id="31" value="" style="shape=flexArrow;endArrow=classic;html=1;fontSize=15;width=9.841269841269842;endSize=6.193650793650795;endWidth=10.874424720578567;" edge="1" parent="1">
                    <mxGeometry width="50" height="50" relative="1" as="geometry">
                        <mxPoint x="305" y="434.8" as="sourcePoint"/>
                        <mxPoint x="345" y="434.63999999999993" as="targetPoint"/>
                    </mxGeometry>
                </mxCell>
                <mxCell id="32" value="" style="rounded=0;whiteSpace=wrap;html=1;strokeColor=default;fontSize=14;" vertex="1" parent="1">
                    <mxGeometry x="905" y="390" width="210" height="320" as="geometry"/>
                </mxCell>
                <mxCell id="33" value="&lt;font style=&quot;font-size: 16px;&quot;&gt;&lt;i&gt;&lt;b&gt;DataTypes:&lt;/b&gt;&lt;/i&gt;&lt;/font&gt;" style="text;html=1;strokeColor=none;fillColor=none;align=left;verticalAlign=middle;whiteSpace=wrap;rounded=0;fontSize=14;" vertex="1" parent="1">
                    <mxGeometry x="915" y="400" width="200" height="30" as="geometry"/>
                </mxCell>
                <mxCell id="34" value="&lt;font size=&quot;1&quot; style=&quot;&quot;&gt;&lt;i style=&quot;font-size: 15px;&quot;&gt;DB-Models:&lt;/i&gt;&lt;/font&gt;" style="text;html=1;strokeColor=none;fillColor=none;align=left;verticalAlign=middle;whiteSpace=wrap;rounded=0;fontSize=14;" vertex="1" parent="1">
                    <mxGeometry x="915" y="440" width="200" height="30" as="geometry"/>
                </mxCell>
                <mxCell id="36" value="&lt;div style=&quot;color: rgb(0, 0, 0); background-color: rgb(255, 255, 255); font-family: Consolas, &amp;quot;Courier New&amp;quot;, monospace; font-weight: normal; font-size: 14px; line-height: 19px;&quot;&gt;&lt;div&gt;&lt;span style=&quot;color: #2b91af;&quot;&gt;EntityData&lt;/span&gt;&lt;/div&gt;&lt;/div&gt;" style="text;whiteSpace=wrap;html=1;fontSize=15;" vertex="1" parent="1">
                    <mxGeometry x="935" y="470" width="110" height="30" as="geometry"/>
                </mxCell>
                <mxCell id="37" value="&lt;div style=&quot;color: rgb(0, 0, 0); background-color: rgb(255, 255, 255); font-family: Consolas, &amp;quot;Courier New&amp;quot;, monospace; font-weight: normal; font-size: 14px; line-height: 19px;&quot;&gt;&lt;div&gt;&lt;span style=&quot;color: #2b91af;&quot;&gt;EntityHistoric&lt;/span&gt;&lt;/div&gt;&lt;/div&gt;" style="text;whiteSpace=wrap;html=1;fontSize=15;" vertex="1" parent="1">
                    <mxGeometry x="935" y="500" width="140" height="30" as="geometry"/>
                </mxCell>
                <mxCell id="38" value="&lt;font size=&quot;1&quot; style=&quot;&quot;&gt;&lt;i style=&quot;font-size: 15px;&quot;&gt;Info-Structures:&lt;/i&gt;&lt;/font&gt;" style="text;html=1;strokeColor=none;fillColor=none;align=left;verticalAlign=middle;whiteSpace=wrap;rounded=0;fontSize=14;" vertex="1" parent="1">
                    <mxGeometry x="915" y="540" width="200" height="30" as="geometry"/>
                </mxCell>
                <mxCell id="39" value="&lt;span style=&quot;color: rgb(43, 145, 175); font-family: Consolas, &amp;quot;Courier New&amp;quot;, monospace; font-size: 14px; font-style: normal; font-variant-ligatures: normal; font-variant-caps: normal; font-weight: 400; letter-spacing: normal; orphans: 2; text-align: left; text-indent: 0px; text-transform: none; widows: 2; word-spacing: 0px; -webkit-text-stroke-width: 0px; background-color: rgb(255, 255, 255); text-decoration-thickness: initial; text-decoration-style: initial; text-decoration-color: initial; float: none; display: inline !important;&quot;&gt;EntityCreationInfo&lt;/span&gt;" style="text;whiteSpace=wrap;html=1;fontSize=15;" vertex="1" parent="1">
                    <mxGeometry x="935" y="570" width="170" height="30" as="geometry"/>
                </mxCell>
                <mxCell id="40" value="&lt;span style=&quot;color: rgb(43, 145, 175); font-family: Consolas, &amp;quot;Courier New&amp;quot;, monospace; font-size: 14px; font-style: normal; font-variant-ligatures: normal; font-variant-caps: normal; font-weight: 400; letter-spacing: normal; orphans: 2; text-align: left; text-indent: 0px; text-transform: none; widows: 2; word-spacing: 0px; -webkit-text-stroke-width: 0px; background-color: rgb(255, 255, 255); text-decoration-thickness: initial; text-decoration-style: initial; text-decoration-color: initial; float: none; display: inline !important;&quot;&gt;EntityUpdateInfo&lt;/span&gt;" style="text;whiteSpace=wrap;html=1;fontSize=15;verticalAlign=middle;" vertex="1" parent="1">
                    <mxGeometry x="935" y="600" width="160" height="30" as="geometry"/>
                </mxCell>
                <mxCell id="41" value="&lt;div style=&quot;color: rgb(0, 0, 0); background-color: rgb(255, 255, 255); font-family: Consolas, &amp;quot;Courier New&amp;quot;, monospace; font-weight: normal; font-size: 14px; line-height: 19px;&quot;&gt;&lt;div&gt;&lt;span style=&quot;color: #2b91af;&quot;&gt;EntityStateInfo&lt;/span&gt;&lt;/div&gt;&lt;/div&gt;" style="text;whiteSpace=wrap;html=1;fontSize=15;verticalAlign=middle;" vertex="1" parent="1">
                    <mxGeometry x="935" y="630" width="150" height="30" as="geometry"/>
                </mxCell>
                <mxCell id="42" value="&lt;div style=&quot;color: rgb(0, 0, 0); background-color: rgb(255, 255, 255); font-family: Consolas, &amp;quot;Courier New&amp;quot;, monospace; font-weight: normal; font-size: 14px; line-height: 19px;&quot;&gt;&lt;div&gt;&lt;span style=&quot;color: #2b91af;&quot;&gt;EntityHistoryInfo&lt;/span&gt;&lt;/div&gt;&lt;/div&gt;" style="text;whiteSpace=wrap;html=1;fontSize=15;verticalAlign=middle;" vertex="1" parent="1">
                    <mxGeometry x="935" y="660" width="160" height="30" as="geometry"/>
                </mxCell>
                <mxCell id="44" value="" style="rounded=1;whiteSpace=wrap;html=1;arcSize=50;absoluteArcSize=1;" vertex="1" parent="1">
                    <mxGeometry x="320" y="1030" width="610" height="90" as="geometry"/>
                </mxCell>
                <mxCell id="45" value="&lt;b style=&quot;font-size: 19px;&quot;&gt;&lt;font style=&quot;font-size: 19px;&quot;&gt;MQTT-Instance&lt;/font&gt;&lt;/b&gt;" style="text;html=1;strokeColor=none;fillColor=none;align=center;verticalAlign=middle;whiteSpace=wrap;rounded=1;fontSize=19;" vertex="1" parent="1">
                    <mxGeometry x="340" y="1030" width="570" height="40" as="geometry"/>
                </mxCell>
                <mxCell id="46" value="" style="endArrow=none;html=1;entryX=0;entryY=1;entryDx=0;entryDy=0;exitX=1;exitY=1;exitDx=0;exitDy=0;" edge="1" parent="1" source="45" target="45">
                    <mxGeometry width="50" height="50" relative="1" as="geometry">
                        <mxPoint x="189.7727272727273" y="1003.3333333333334" as="sourcePoint"/>
                        <mxPoint x="301.1363636363636" y="936.6666666666666" as="targetPoint"/>
                    </mxGeometry>
                </mxCell>
                <mxCell id="47" value="" style="rounded=1;whiteSpace=wrap;html=1;arcSize=50;absoluteArcSize=1;" vertex="1" parent="1">
                    <mxGeometry x="320" y="1130" width="610" height="90" as="geometry"/>
                </mxCell>
                <mxCell id="48" value="&lt;span style=&quot;font-size: 19px;&quot;&gt;&lt;b style=&quot;font-size: 19px;&quot;&gt;socketIO-Instance&lt;/b&gt;&lt;/span&gt;" style="text;html=1;strokeColor=none;fillColor=none;align=center;verticalAlign=middle;whiteSpace=wrap;rounded=1;fontSize=19;" vertex="1" parent="1">
                    <mxGeometry x="332.5" y="1130" width="577.5" height="40" as="geometry"/>
                </mxCell>
                <mxCell id="49" value="" style="endArrow=none;html=1;entryX=0;entryY=1;entryDx=0;entryDy=0;exitX=1;exitY=1;exitDx=0;exitDy=0;" edge="1" parent="1" source="48" target="48">
                    <mxGeometry width="50" height="50" relative="1" as="geometry">
                        <mxPoint x="189.7727272727273" y="1083.3333333333335" as="sourcePoint"/>
                        <mxPoint x="301.1363636363636" y="1016.6666666666666" as="targetPoint"/>
                    </mxGeometry>
                </mxCell>
                <mxCell id="53" value="" style="rounded=1;whiteSpace=wrap;html=1;arcSize=50;absoluteArcSize=1;dashed=1;" vertex="1" parent="1">
                    <mxGeometry x="15" y="340" width="270" height="910" as="geometry"/>
                </mxCell>
                <mxCell id="50" value="&lt;font style=&quot;font-size: 18px;&quot;&gt;actions - Module&lt;/font&gt;" style="shape=hexagon;perimeter=hexagonPerimeter2;whiteSpace=wrap;html=1;fixedSize=1;rounded=1;strokeColor=default;fontSize=15;" vertex="1" parent="1">
                    <mxGeometry x="35" y="415" width="230" height="80" as="geometry"/>
                </mxCell>
                <mxCell id="51" value="&lt;font style=&quot;font-size: 18px;&quot;&gt;mqtt - Module&lt;/font&gt;" style="shape=hexagon;perimeter=hexagonPerimeter2;whiteSpace=wrap;html=1;fixedSize=1;rounded=1;strokeColor=default;fontSize=15;" vertex="1" parent="1">
                    <mxGeometry x="35" y="520" width="230" height="80" as="geometry"/>
                </mxCell>
                <mxCell id="52" value="&lt;font style=&quot;font-size: 18px;&quot;&gt;ui -Module&lt;/font&gt;" style="shape=hexagon;perimeter=hexagonPerimeter2;whiteSpace=wrap;html=1;fixedSize=1;rounded=1;strokeColor=default;fontSize=15;" vertex="1" parent="1">
                    <mxGeometry x="35" y="625" width="230" height="80" as="geometry"/>
                </mxCell>
                <mxCell id="54" value="&lt;b style=&quot;font-size: 19px;&quot;&gt;&lt;font style=&quot;font-size: 19px;&quot;&gt;Modules&lt;/font&gt;&lt;/b&gt;" style="text;html=1;strokeColor=none;fillColor=none;align=center;verticalAlign=middle;whiteSpace=wrap;rounded=1;fontSize=19;" vertex="1" parent="1">
                    <mxGeometry x="35" y="340" width="230" height="30" as="geometry"/>
                </mxCell>
                <mxCell id="55" value="" style="endArrow=none;html=1;entryX=0;entryY=1;entryDx=0;entryDy=0;" edge="1" parent="1" target="54">
                    <mxGeometry width="50" height="50" relative="1" as="geometry">
                        <mxPoint x="265" y="370" as="sourcePoint"/>
                        <mxPoint x="44.99999999999977" y="370" as="targetPoint"/>
                    </mxGeometry>
                </mxCell>
                <mxCell id="56" value="" style="rounded=1;whiteSpace=wrap;html=1;arcSize=50;absoluteArcSize=1;" vertex="1" parent="1">
                    <mxGeometry x="15" y="160" width="1140" height="170" as="geometry"/>
                </mxCell>
                <mxCell id="57" value="&lt;b style=&quot;font-size: 19px;&quot;&gt;&lt;font style=&quot;font-size: 19px;&quot;&gt;Web (Flask + Main App)&lt;/font&gt;&lt;/b&gt;" style="text;html=1;strokeColor=none;fillColor=none;align=center;verticalAlign=middle;whiteSpace=wrap;rounded=1;fontSize=19;" vertex="1" parent="1">
                    <mxGeometry x="35" y="160" width="1100" height="30" as="geometry"/>
                </mxCell>
                <mxCell id="58" value="" style="endArrow=none;html=1;entryX=0;entryY=1;entryDx=0;entryDy=0;exitX=1;exitY=1;exitDx=0;exitDy=0;" edge="1" parent="1" source="57" target="57">
                    <mxGeometry width="50" height="50" relative="1" as="geometry">
                        <mxPoint x="1144.999999999999" y="380" as="sourcePoint"/>
                        <mxPoint x="335.0000000000009" y="380" as="targetPoint"/>
                    </mxGeometry>
                </mxCell>
                <mxCell id="6" value="" style="rounded=1;whiteSpace=wrap;html=1;arcSize=50;absoluteArcSize=1;" vertex="1" parent="1">
                    <mxGeometry x="320" y="740" width="610" height="280" as="geometry"/>
                </mxCell>
                <mxCell id="7" value="&lt;b style=&quot;font-size: 19px;&quot;&gt;&lt;font style=&quot;font-size: 19px;&quot;&gt;DB&lt;/font&gt;&lt;/b&gt;" style="text;html=1;strokeColor=none;fillColor=none;align=center;verticalAlign=middle;whiteSpace=wrap;rounded=1;fontSize=19;" vertex="1" parent="1">
                    <mxGeometry x="340" y="740" width="570" height="40" as="geometry"/>
                </mxCell>
                <mxCell id="8" value="" style="endArrow=none;html=1;entryX=0;entryY=1;entryDx=0;entryDy=0;exitX=1;exitY=1;exitDx=0;exitDy=0;" edge="1" parent="1" source="7" target="7">
                    <mxGeometry width="50" height="50" relative="1" as="geometry">
                        <mxPoint x="189.7727272727273" y="713.3333333333334" as="sourcePoint"/>
                        <mxPoint x="301.1363636363636" y="646.6666666666666" as="targetPoint"/>
                    </mxGeometry>
                </mxCell>
                <mxCell id="63" value="&lt;div style=&quot;color: rgb(0, 0, 0); background-color: rgb(255, 255, 255); font-family: Consolas, &amp;quot;Courier New&amp;quot;, monospace; font-weight: normal; font-size: 14px; line-height: 19px;&quot;&gt;&lt;div&gt;&lt;span style=&quot;color: #74531f;&quot;&gt;create_entity&lt;/span&gt;&lt;span style=&quot;color: #000000;&quot;&gt;(&lt;/span&gt;&lt;span style=&quot;color: #808080;&quot;&gt;self&lt;/span&gt;&lt;span style=&quot;color: #000000;&quot;&gt;, &lt;/span&gt;&lt;span style=&quot;color: #808080;&quot;&gt;entity_id&lt;/span&gt;&lt;span style=&quot;color: #000000;&quot;&gt;: &lt;/span&gt;&lt;span style=&quot;color: #2b91af;&quot;&gt;str&lt;/span&gt;&lt;span style=&quot;color: #000000;&quot;&gt;, &lt;/span&gt;&lt;span style=&quot;color: #808080;&quot;&gt;data_type&lt;/span&gt;&lt;span style=&quot;color: #000000;&quot;&gt;: &lt;/span&gt;&lt;span style=&quot;color: #2b91af;&quot;&gt;str&lt;/span&gt;&lt;span style=&quot;color: #000000;&quot;&gt;, &lt;/span&gt;&lt;span style=&quot;color: #808080;&quot;&gt;history_depth&lt;/span&gt;&lt;span style=&quot;color: #000000;&quot;&gt;: &lt;/span&gt;&lt;span style=&quot;color: #2b91af;&quot;&gt;int&lt;/span&gt;&lt;span style=&quot;color: #000000;&quot;&gt;)&lt;/span&gt;&lt;/div&gt;&lt;/div&gt;" style="text;whiteSpace=wrap;html=1;fontSize=13;verticalAlign=middle;" vertex="1" parent="1">
                    <mxGeometry x="342.5" y="800" width="560" height="30" as="geometry"/>
                </mxCell>
                <mxCell id="64" value="&lt;div style=&quot;color: rgb(0, 0, 0); background-color: rgb(255, 255, 255); font-family: Consolas, &amp;quot;Courier New&amp;quot;, monospace; font-weight: normal; font-size: 14px; line-height: 19px;&quot;&gt;&lt;div&gt;&lt;span style=&quot;color: #74531f;&quot;&gt;update_entity&lt;/span&gt;&lt;span style=&quot;color: #000000;&quot;&gt;(&lt;/span&gt;&lt;span style=&quot;color: #808080;&quot;&gt;self&lt;/span&gt;&lt;span style=&quot;color: #000000;&quot;&gt;, &lt;/span&gt;&lt;span style=&quot;color: #808080;&quot;&gt;entity_id&lt;/span&gt;&lt;span style=&quot;color: #000000;&quot;&gt;: &lt;/span&gt;&lt;span style=&quot;color: #2b91af;&quot;&gt;str&lt;/span&gt;&lt;span style=&quot;color: #000000;&quot;&gt;, &lt;/span&gt;&lt;span style=&quot;color: #808080;&quot;&gt;new_value&lt;/span&gt;&lt;span style=&quot;color: #000000;&quot;&gt;: &lt;/span&gt;&lt;span style=&quot;color: #74531f;&quot;&gt;any&lt;/span&gt;&lt;span style=&quot;color: #000000;&quot;&gt;)&lt;/span&gt;&lt;/div&gt;&lt;/div&gt;" style="text;whiteSpace=wrap;html=1;fontSize=13;verticalAlign=middle;" vertex="1" parent="1">
                    <mxGeometry x="342.5" y="830" width="430" height="30" as="geometry"/>
                </mxCell>
                <mxCell id="65" value="&lt;div style=&quot;color: rgb(0, 0, 0); background-color: rgb(255, 255, 255); font-family: Consolas, &amp;quot;Courier New&amp;quot;, monospace; font-weight: normal; font-size: 14px; line-height: 19px;&quot;&gt;&lt;div&gt;&lt;span style=&quot;color: #74531f;&quot;&gt;get_entity&lt;/span&gt;&lt;span style=&quot;color: #000000;&quot;&gt;(&lt;/span&gt;&lt;span style=&quot;color: #808080;&quot;&gt;self&lt;/span&gt;&lt;span style=&quot;color: #000000;&quot;&gt;, &lt;/span&gt;&lt;span style=&quot;color: #808080;&quot;&gt;entity_id&lt;/span&gt;&lt;span style=&quot;color: #000000;&quot;&gt;)&lt;/span&gt;&lt;/div&gt;&lt;/div&gt;" style="text;whiteSpace=wrap;html=1;fontSize=13;verticalAlign=middle;" vertex="1" parent="1">
                    <mxGeometry x="342.5" y="860" width="240" height="30" as="geometry"/>
                </mxCell>
                <mxCell id="66" value="&lt;div style=&quot;color: rgb(0, 0, 0); background-color: rgb(255, 255, 255); font-family: Consolas, &amp;quot;Courier New&amp;quot;, monospace; font-weight: normal; font-size: 14px; line-height: 19px;&quot;&gt;&lt;div&gt;&lt;span style=&quot;color: #74531f;&quot;&gt;get_all_entity_ids&lt;/span&gt;&lt;span style=&quot;color: #000000;&quot;&gt;(&lt;/span&gt;&lt;span style=&quot;color: #808080;&quot;&gt;self&lt;/span&gt;&lt;span style=&quot;color: #000000;&quot;&gt;)&lt;/span&gt;&lt;/div&gt;&lt;/div&gt;" style="text;whiteSpace=wrap;html=1;fontSize=13;verticalAlign=middle;" vertex="1" parent="1">
                    <mxGeometry x="342.5" y="890" width="220" height="30" as="geometry"/>
                </mxCell>
                <mxCell id="67" value="&lt;div style=&quot;color: rgb(0, 0, 0); background-color: rgb(255, 255, 255); font-family: Consolas, &amp;quot;Courier New&amp;quot;, monospace; font-weight: normal; font-size: 14px; line-height: 19px;&quot;&gt;&lt;div&gt;&lt;span style=&quot;color: #74531f;&quot;&gt;get_all_entity_history&lt;/span&gt;&lt;span style=&quot;color: #000000;&quot;&gt;(&lt;/span&gt;&lt;span style=&quot;color: #808080;&quot;&gt;self&lt;/span&gt;&lt;span style=&quot;color: #000000;&quot;&gt;, &lt;/span&gt;&lt;span style=&quot;color: #808080;&quot;&gt;entity_id&lt;/span&gt;&lt;span style=&quot;color: #000000;&quot;&gt;: &lt;/span&gt;&lt;span style=&quot;color: #2b91af;&quot;&gt;str&lt;/span&gt;&lt;span style=&quot;color: #000000;&quot;&gt;)&lt;/span&gt;&lt;/div&gt;&lt;/div&gt;" style="text;whiteSpace=wrap;html=1;fontSize=13;verticalAlign=middle;" vertex="1" parent="1">
                    <mxGeometry x="342.5" y="920" width="370" height="30" as="geometry"/>
                </mxCell>
                <mxCell id="68" value="&lt;div style=&quot;color: rgb(0, 0, 0); background-color: rgb(255, 255, 255); font-family: Consolas, &amp;quot;Courier New&amp;quot;, monospace; font-weight: normal; font-size: 14px; line-height: 19px;&quot;&gt;&lt;div&gt;&lt;span style=&quot;color: #74531f;&quot;&gt;dbg_printout_db&lt;/span&gt;&lt;span style=&quot;color: #000000;&quot;&gt;(&lt;/span&gt;&lt;span style=&quot;color: #808080;&quot;&gt;self&lt;/span&gt;&lt;span style=&quot;color: #000000;&quot;&gt;)&lt;/span&gt;&lt;/div&gt;&lt;/div&gt;" style="text;whiteSpace=wrap;html=1;fontSize=13;verticalAlign=middle;" vertex="1" parent="1">
                    <mxGeometry x="342.5" y="950" width="200" height="30" as="geometry"/>
                </mxCell>
                <mxCell id="69" value="&lt;font style=&quot;font-size: 46px;&quot;&gt;&lt;b&gt;PurePyHome:&lt;/b&gt;&lt;/font&gt;" style="text;html=1;strokeColor=none;fillColor=none;align=left;verticalAlign=middle;whiteSpace=wrap;rounded=0;dashed=1;fontSize=13;" vertex="1" parent="1">
                    <mxGeometry x="32.5" y="50" width="530" height="70" as="geometry"/>
                </mxCell>
            </root>
        </mxGraphModel>
    </diagram>
</mxfile>